<?xml version="1.0" encoding="UTF-8"?>
<!DOCTYPE svg PUBLIC "-//W3C//DTD SVG 1.1//EN" "http://www.w3.org/Graphics/SVG/1.1/DTD/svg11.dtd">
<!-- Creator: CorelDRAW X8 -->
<svg xmlns="http://www.w3.org/2000/svg" xml:space="preserve" width="6.99991cm" height="2.6575cm" version="1.1" style="shape-rendering:geometricPrecision; text-rendering:geometricPrecision; image-rendering:optimizeQuality; fill-rule:evenodd; clip-rule:evenodd"
viewBox="0 0 7011 2662"
 xmlns:xlink="http://www.w3.org/1999/xlink">
 <defs>
  <style type="text/css">
   <![CDATA[
    .fil0 {fill:#FEC63E}
    .fil1 {fill:white;fill-rule:nonzero}
   ]]>
  </style>
 </defs>
 <g id="Camada_x0020_1">
  <metadata id="CorelCorpID_0Corel-Layer"/>
  <g id="_494381792">
   <path class="fil0" d="M2293 505c-18,-139 -111,-258 -241,-311 -64,-27 -133,-35 -202,-27 -67,8 -133,29 -202,69 -96,53 -192,136 -303,258 175,215 281,412 321,587 19,83 22,157 14,226 -11,66 -35,128 -72,181 -82,119 -221,188 -375,188 -154,0 -292,-71 -374,-188 -38,-53 -62,-115 -72,-181 -11,-69 -8,-146 13,-226 40,-175 149,-375 322,-590 -109,-122 -208,-204 -303,-257 -69,-40 -136,-62 -202,-70 -69,-7 -138,2 -202,27 -130,53 -223,173 -242,311 -8,66 -2,133 24,207 8,27 21,53 35,85 18,43 39,88 61,133l2 5c184,396 380,800 585,1193l8 16c21,40 42,83 64,123 21,42 45,82 74,117 56,63 130,98 213,98 82,0 156,-35 212,-98 29,-35 53,-75 75,-117 21,-40 42,-83 63,-123l8 -15c202,-396 399,-800 582,-1196l0 -3c22,-42 40,-90 61,-133 14,-32 27,-58 35,-85 21,-69 29,-135 18,-204l0 0zm-1060 125c-143,180 -236,350 -268,494 -13,61 -16,114 -8,162 5,42 21,80 42,111 51,72 136,117 234,117 99,0 186,-42 234,-117 21,-31 37,-69 43,-111 7,-48 5,-104 -8,-162 -32,-141 -125,-311 -269,-494l0 0zm1199 138c-14,31 -27,66 -40,95 -22,48 -43,93 -61,136l-3 2c-183,399 -380,803 -587,1201l-8 16c-21,40 -43,83 -64,125 -27,48 -53,99 -96,146 -85,107 -207,165 -337,165 -133,0 -252,-58 -340,-159 -40,-48 -69,-98 -96,-146 -21,-43 -42,-85 -64,-125l-8 -16c-204,-399 -404,-802 -587,-1201l-2 -5c-19,-43 -40,-88 -62,-136 -14,-31 -27,-63 -40,-95 -34,-99 -45,-192 -31,-287 29,-200 162,-367 345,-442 69,-29 141,-42 215,-42 22,0 48,3 69,5 88,11 178,40 266,91 109,61 213,148 329,276 117,-128 224,-215 330,-276 88,-51 178,-80 266,-91 21,-2 47,-5 69,-5 74,0 148,13 215,42 186,75 316,245 345,442 22,92 11,185 -23,284z"/>
   <path class="fil1" d="M2823 1197c45,0 84,16 116,49 32,32 48,71 48,117 0,46 -16,84 -48,116 -31,32 -70,48 -114,48 -46,0 -84,-16 -116,-49 -33,-32 -49,-72 -49,-119 0,-45 16,-83 48,-114 32,-32 70,-48 115,-48zm-128 419l256 0 0 1021 -256 0 0 -1021z"/>
   <polygon id="1" class="fil1" points="3213,1239 3469,1239 3469,1616 3621,1616 3621,1837 3469,1837 3469,2637 3213,2637 3213,1837 3083,1837 3083,1616 3213,1616 "/>
   <path id="2" class="fil1" d="M3699 1616l221 0 0 130c24,-51 55,-89 95,-116 39,-26 82,-39 128,-39 33,0 68,9 104,26l-79 221c-30,-15 -55,-22 -74,-22 -39,0 -72,24 -99,73 -28,49 -41,144 -41,286l1 50 0 412 -256 0 0 -1021z"/>
   <path id="3" class="fil1" d="M4475 1197c45,0 84,16 116,49 32,32 48,71 48,117 0,46 -16,84 -48,116 -32,32 -70,48 -114,48 -46,0 -84,-16 -116,-49 -33,-32 -49,-72 -49,-119 0,-45 16,-83 48,-114 32,-32 70,-48 115,-48zm-128 419l255 0 0 1021 -255 0 0 -1021z"/>
   <path id="4" class="fil1" d="M4834 1616l256 0 0 105c58,-49 111,-82 158,-102 47,-18 95,-28 145,-28 101,0 187,35 258,106 59,60 89,149 89,266l0 674 -254 0 0 -447c0,-121 -5,-202 -16,-242 -11,-40 -30,-70 -57,-91 -28,-21 -61,-32 -101,-32 -52,0 -96,18 -134,52 -37,35 -62,83 -77,144 -7,32 -11,101 -11,207l0 409 -256 0 0 -1021z"/>
   <path id="5" class="fil1" d="M7010 2198l-822 0c12,73 44,131 95,174 51,43 117,65 196,65 96,0 177,-34 246,-101l215 101c-54,77 -118,133 -193,170 -75,36 -164,55 -266,55 -160,0 -290,-51 -390,-152 -101,-100 -151,-226 -151,-378 0,-155 50,-284 151,-387 100,-103 225,-154 377,-154 161,0 291,51 392,153 100,103 151,238 151,406l-1 48zm-255 -200c-17,-55 -50,-101 -100,-136 -50,-35 -108,-52 -174,-52 -71,0 -133,20 -188,59 -33,24 -65,68 -93,129l555 0z"/>
  </g>
 </g>
</svg>
